<?xml version="1.0" encoding="UTF-8"?>
<svg version="1.1" xmlns="http://www.w3.org/2000/svg" width="1024" height="1024">
<path d="M0 0 C19.10680315 -0.10949354 38.21341454 -0.12176198 57.32047186 -0.11368442 C62.92500672 -0.11136334 68.52953854 -0.11112343 74.13407373 -0.11219692 C74.94329082 -0.11235016 75.75250791 -0.11250339 76.58624673 -0.11266126 C78.23194636 -0.1129811 79.877646 -0.11330532 81.52334563 -0.11363386 C96.8065439 -0.1164577 112.08973609 -0.11324988 127.37293337 -0.10783349 C140.40137099 -0.10335884 153.4297997 -0.10415289 166.45823717 -0.10875225 C181.71800422 -0.11413708 196.977766 -0.11619306 212.23753387 -0.11313999 C213.87254178 -0.11282155 215.5075497 -0.11250717 217.14255762 -0.11219692 C217.94631111 -0.11204265 218.7500646 -0.11188837 219.57817426 -0.11172942 C225.1621456 -0.11087662 230.74611352 -0.1122998 236.33008432 -0.11467648 C243.15398725 -0.11751816 249.97787871 -0.11664581 256.80178037 -0.11139573 C260.26318471 -0.10881782 263.7245549 -0.10821428 267.18596125 -0.11104488 C280.96997194 -0.12126307 294.74667868 -0.01823691 308.52550147 0.3658904 C309.9039187 0.4040967 311.28239404 0.4402734 312.66092356 0.47418712 C329.50305805 0.90069498 344.10155449 4.03496383 359.40232897 11.02161884 C360.44904772 11.49599384 361.49576647 11.97036884 362.57420397 12.45911884 C373.5985071 17.71422707 384.48728722 24.61938923 393.40232897 33.02161884 C393.40232897 33.68161884 393.40232897 34.34161884 393.40232897 35.02161884 C393.94373522 35.22142353 394.48514147 35.42122822 395.04295397 35.62708759 C398.3928322 37.60706529 400.67003298 40.39515919 403.15232897 43.33411884 C403.68310045 43.96148945 404.21387194 44.58886005 404.76072741 45.23524189 C423.8976629 68.32083858 432.57207317 95.87715441 432.53604174 125.49360371 C432.53791226 126.95641092 432.54021393 128.41921764 432.54290706 129.88202357 C432.54900158 133.8841559 432.54889424 137.88626727 432.54771268 141.88840318 C432.54750808 146.21164567 432.55303309 150.53488154 432.55777025 154.85812092 C432.56606443 163.32156507 432.56882453 171.78500225 432.56938263 180.24845013 C432.56985837 187.13027631 432.57191599 194.01210021 432.57508326 200.89392567 C432.58388639 220.41972246 432.58850315 239.94551376 432.58775278 259.47131255 C432.58769285 261.04913165 432.58769285 261.04913165 432.5876317 262.65882587 C432.58757038 264.23857892 432.58757038 264.23857892 432.58750782 265.85024616 C432.58710143 282.91576423 432.59667021 299.98126023 432.61077007 317.04677191 C432.62514477 334.58378363 432.63203965 352.12078459 432.63117629 369.65780234 C432.63084471 379.49776533 432.633575 389.33770518 432.64435434 399.17766285 C432.65347373 407.55578404 432.65562277 415.93387159 432.64884492 424.3119956 C432.64558701 428.58295418 432.64549662 432.85384829 432.65419817 437.12480068 C432.66209639 441.04188967 432.66059808 444.95886342 432.65191404 448.87594971 C432.65038633 450.28572822 432.65216739 451.69551546 432.65777411 453.10528365 C432.79091544 488.98664411 418.46107258 518.07197282 393.98436022 543.53724384 C363.12216735 573.07145939 324.99029723 577.50986661 284.26223409 577.41379285 C279.94655782 577.4069279 275.63091615 577.41751993 271.31524706 577.42573261 C262.88803609 577.43899338 254.4609058 577.43622674 246.03369182 577.42749469 C239.17839507 577.42068861 232.32312076 577.41981399 225.4678216 577.42306614 C224.48798853 577.42352584 223.50815546 577.42398554 222.49863048 577.42445917 C220.50743805 577.42541845 218.51624563 577.42639109 216.52505321 577.42737694 C197.90360764 577.43590828 179.28220655 577.42613201 160.66076828 577.40997584 C144.71937499 577.39657262 128.77804725 577.39890519 112.83665514 577.41273212 C94.27520437 577.42882431 75.71379247 577.43508673 57.1523357 577.42589533 C55.16923067 577.42493979 53.18612562 577.42399668 51.20302057 577.42306614 C50.2275706 577.42260331 49.25212063 577.42214049 48.24711157 577.42166363 C41.40794592 577.4190848 34.56880514 577.4234207 27.72964334 577.4305048 C19.38377937 577.43896048 11.03799994 577.43655473 2.69214552 577.42066257 C-1.55737871 577.41283451 -5.80676252 577.40959367 -10.05628538 577.41961002 C-53.47545464 577.51326966 -88.10637474 569.32445991 -120.21485853 538.50990009 C-145.33491351 512.30639226 -154.79088513 479.2788091 -154.72465467 443.69410419 C-154.72621467 442.39293549 -154.72777466 441.09176679 -154.72938192 439.75116873 C-154.73352826 436.16823407 -154.73150583 432.58532629 -154.7283957 429.00239158 C-154.72612221 425.12609319 -154.72963113 421.24979926 -154.73237562 417.37350178 C-154.7368135 409.78662197 -154.73586507 402.19975208 -154.73296298 394.61287189 C-154.7306985 388.43487546 -154.73040096 382.2568818 -154.7314868 376.07888508 C-154.73164003 375.19728003 -154.73179326 374.31567498 -154.73195114 373.40735462 C-154.7322709 371.61580924 -154.73259511 369.82426386 -154.73292373 368.03271848 C-154.73577341 351.24187764 -154.7325009 334.45104227 -154.72712336 317.66020232 C-154.72266824 303.30687617 -154.72342156 288.95355812 -154.72804213 274.60023212 C-154.73341848 257.89155777 -154.73548573 241.18288822 -154.73242986 224.47421312 C-154.73211136 222.68461037 -154.73179699 220.89500761 -154.7314868 219.10540485 C-154.73133252 218.22516955 -154.73117825 217.34493425 -154.7310193 216.43802515 C-154.73016236 210.28801682 -154.7315994 204.13801158 -154.73396635 197.98800373 C-154.73679924 190.46233459 -154.73595424 182.93667586 -154.73068561 175.41100788 C-154.72809303 171.58387717 -154.72696586 167.75676365 -154.73033476 163.92963314 C-154.7418032 149.62644814 -154.66609525 135.33451316 -154.16380262 121.03834248 C-154.12663795 119.94691299 -154.08947327 118.8554835 -154.05118239 117.7309804 C-152.88273339 88.37953102 -140.89215765 63.4978646 -122.22267103 41.33411884 C-121.69834486 40.7087624 -121.17401869 40.08340595 -120.63380384 39.43909931 C-119.33366597 37.92651229 -117.97059172 36.46846603 -116.59767103 35.02161884 C-115.93767103 35.02161884 -115.27767103 35.02161884 -114.59767103 35.02161884 C-114.59767103 34.36161884 -114.59767103 33.70161884 -114.59767103 33.02161884 C-103.26066088 22.80258812 -90.3311999 14.87159866 -76.41017103 8.70911884 C-75.38983778 8.23889301 -75.38983778 8.23889301 -74.34889174 7.75916767 C-59.81715917 1.64062951 -43.67783792 0.40385073 -28.10035658 0.27991962 C-26.26912957 0.25206313 -24.43791835 0.2231536 -22.60672235 0.1933279 C-15.07141876 0.08317234 -7.53591051 0.0452842 0 0 Z " fill="#13263D" transform="translate(372.5976710319519,214.9783811569214)"/>
<path d="M0 0 C1.8828125 0.86083984 1.8828125 0.86083984 4 2.0234375 C11.54393006 5.90863743 19.45483057 8.92171973 27.32653809 12.06854248 C32.0832116 13.97048568 36.83415415 15.88666131 41.5859375 17.80078125 C42.51321655 18.17388428 43.44049561 18.5469873 44.39587402 18.93139648 C50.8654716 21.53626307 57.3189799 24.17611014 63.75 26.875 C71.49149493 30.12307305 79.24351095 33.34423144 87.00390625 36.546875 C88.00588043 36.96039215 89.00785461 37.3739093 90.04019165 37.79995728 C94.1209792 39.48377797 98.20191883 41.16722809 102.2833252 42.84954834 C105.16438301 44.03714107 108.04517993 45.22536296 110.92578125 46.4140625 C111.8567865 46.7982132 112.78779175 47.18236389 113.74700928 47.57815552 C120.76425299 50.4783121 127.76522564 53.41595456 134.75105286 56.39102173 C139.25358598 58.29987872 143.78108688 60.07233795 148.375 61.75 C156.20922324 64.62705725 163.91674235 67.80392312 171.625 71 C172.82817871 71.49854492 174.03135742 71.99708984 175.27099609 72.51074219 C177.64798553 73.49939864 180.02285238 74.49317469 182.39550781 75.4921875 C184.89424009 76.53744424 187.39538944 77.56311149 189.90917969 78.5703125 C191.17650113 79.08837329 192.44375591 79.6065972 193.7109375 80.125 C194.8457959 80.58132813 195.9806543 81.03765625 197.14990234 81.5078125 C200.31075823 83.16269953 201.30663088 83.89361623 203 87 C203.44434137 89.99544022 203.40446767 92.96573104 203.38095093 95.98924255 C203.3856309 96.90793171 203.39031087 97.82662086 203.39513266 98.77314907 C203.40712056 101.85859615 203.39761048 104.94360218 203.38818359 108.02905273 C203.39224763 110.23825338 203.39758856 112.44745199 203.40411377 114.65664673 C203.41781388 120.66280288 203.41247734 126.66880479 203.40297651 132.67496371 C203.39539294 138.95470525 203.40242199 145.23443338 203.40713501 151.51417542 C203.41294684 162.73804226 203.40360979 173.96184541 203.388357 185.18569726 C203.37495687 195.36121909 203.37727887 205.53663823 203.39111328 215.7121582 C203.40717039 227.52805903 203.41314226 239.34391011 203.40427649 251.15982395 C203.39959564 257.41475043 203.39898641 263.66960617 203.40888596 269.92452812 C203.41754306 275.80552724 203.4115565 281.68633221 203.39420319 287.56731033 C203.39023147 289.72764959 203.39138405 291.88800514 203.39799118 294.04833794 C203.40616964 296.9937049 203.39592953 299.93844684 203.38095093 302.8837738 C203.38764309 303.74194448 203.39433526 304.60011516 203.40123022 305.48429102 C203.35505394 310.15461718 203.00387673 313.19054157 200 317 C198.21679688 318.33087158 198.21679688 318.33087158 196.21875 319.33300781 C195.46924072 319.71777283 194.71973145 320.10253784 193.94750977 320.4989624 C193.13983154 320.89633606 192.33215332 321.29370972 191.5 321.703125 C190.6555835 322.13256409 189.81116699 322.56200317 188.94116211 323.00445557 C187.17305847 323.90264992 185.40208544 324.79521618 183.62841797 325.68237305 C180.36901733 327.31631186 177.12938785 328.98702909 173.8895874 330.65939331 C170.74402228 332.28142974 167.59246564 333.89164582 164.44104004 335.5022583 C160.20406158 337.66799693 155.96921519 339.83789647 151.734375 342.0078125 C150.89767273 342.43649628 150.06097046 342.86518005 149.19891357 343.30685425 C133.84344179 351.17753887 118.52637761 359.12211821 103.26757812 367.17871094 C95.28165293 371.39027884 87.26282475 375.53810253 79.24560547 379.68969727 C71.10826998 383.90418315 62.980519 388.13655174 54.86010742 392.38354492 C49.47716282 395.19573921 44.08499255 397.98910298 38.68359375 400.765625 C36.77797246 401.74639802 34.87242624 402.72731677 32.96688843 403.70825195 C31.70306793 404.3581161 30.43876907 405.00705085 29.17398071 405.6550293 C20.4625015 410.11865896 20.4625015 410.11865896 11.953125 414.953125 C11.23503662 415.38020752 10.51694824 415.80729004 9.77709961 416.24731445 C7.99057019 417.32962226 6.22264716 418.44249429 4.45703125 419.55859375 C-1.00529126 421.83610449 -5.90383719 422.12225027 -11.51977539 420.08666992 C-14.22830284 418.78567034 -16.82720162 417.36323069 -19.4375 415.875 C-21.48251197 414.75938778 -23.5281085 413.64484662 -25.57421875 412.53125 C-26.6317334 411.94730469 -27.68924805 411.36335938 -28.77880859 410.76171875 C-34.05572611 407.87569201 -39.40407439 405.13042231 -44.75 402.375 C-47.03259434 401.19148775 -49.31514503 400.0078913 -51.59765625 398.82421875 C-56.84880872 396.10545444 -62.10830224 393.40318663 -67.37109375 390.70703125 C-81.5079423 383.46224373 -95.6163853 376.17772564 -109.625 368.6875 C-126.19791845 359.82747941 -142.93200446 351.28896782 -159.66992188 342.74595642 C-166.93476728 339.03676684 -174.1896888 335.30865108 -181.43569946 331.56280518 C-183.16721465 330.66779144 -184.89938691 329.77404925 -186.6315918 328.88037109 C-188.71600936 327.8019441 -190.79792996 326.71867297 -192.87695312 325.62988281 C-195.11380372 324.46249581 -197.35585338 323.31289587 -199.60742188 322.17480469 C-200.79578602 321.56226221 -201.98394273 320.94931712 -203.171875 320.3359375 C-204.24018555 319.79243652 -205.30849609 319.24893555 -206.40917969 318.68896484 C-209.20835589 316.86417207 -209.79695499 316.02043407 -211 313 C-211.25415033 311.05984074 -211.25415033 311.05984074 -211.26006222 308.99224949 C-211.26712781 308.20012139 -211.2741934 307.40799329 -211.2814731 306.59186131 C-211.27905802 305.72756896 -211.27664293 304.86327661 -211.27415466 303.97279358 C-211.28200968 302.58863452 -211.28200968 302.58863452 -211.29002339 301.17651266 C-211.30505281 298.07734834 -211.30572918 294.97834869 -211.30639648 291.87915039 C-211.31401588 289.66009745 -211.322443 287.44104717 -211.33161926 285.22200012 C-211.35359031 279.18903075 -211.36236646 273.15611206 -211.36744571 267.12310719 C-211.37108561 263.35608202 -211.37732369 259.58907019 -211.3844471 255.82205009 C-211.40390313 245.39147426 -211.42041641 234.96090767 -211.42332363 224.53031254 C-211.4235112 223.86303069 -211.42369877 223.19574884 -211.42389202 222.50824633 C-211.42425827 221.15552708 -211.42462197 219.80280782 -211.42498314 218.45008857 C-211.42516595 217.7786028 -211.42534876 217.10711703 -211.42553711 216.4152832 C-211.42571766 215.74297782 -211.42589821 215.07067244 -211.42608423 214.37799417 C-211.42962753 203.47897408 -211.45666116 192.58015136 -211.494035 181.68119974 C-211.53210212 170.49053611 -211.55103972 159.29994473 -211.55178314 148.109209 C-211.55257751 141.8262574 -211.56138968 135.54356052 -211.58978081 129.2606678 C-211.61587779 123.35333013 -211.6182133 117.44645991 -211.60212517 111.53909111 C-211.60030412 109.3690629 -211.60706009 107.19900832 -211.62294388 105.02903748 C-211.64328456 102.07019606 -211.63292312 99.11300879 -211.61473083 96.15419006 C-211.6279308 95.29212843 -211.64113077 94.43006681 -211.65473074 93.5418821 C-211.5935098 89.19332212 -211.42037658 87.52587633 -208.61378574 84.01492977 C-206.10890035 82.08394971 -203.9087987 80.75252633 -201.00390625 79.5234375 C-200.0411377 79.11061523 -199.07836914 78.69779297 -198.08642578 78.27246094 C-197.06790527 77.85254883 -196.04938477 77.43263672 -195 77 C-193.9672998 76.56719727 -192.93459961 76.13439453 -191.87060547 75.68847656 C-188.56664618 74.31596245 -185.25384422 72.9672959 -181.9375 71.625 C-180.74721191 71.14095703 -179.55692383 70.65691406 -178.33056641 70.15820312 C-171.86956899 67.53847809 -165.39069367 64.9799162 -158.875 62.5 C-151.84933934 59.81914511 -144.9904895 56.81563472 -138.125 53.75 C-128.15573727 49.30280751 -118.08441629 45.22199543 -107.90527344 41.28198242 C-97.34891552 37.17989562 -86.90777895 32.82684516 -76.47802734 28.41455078 C-70.48803213 25.88077208 -64.49125036 23.37759768 -58.44482422 20.98120117 C-54.74458056 19.49615231 -51.07348243 17.94310609 -47.3984375 16.39697266 C-38.67552431 12.72720701 -29.95045148 9.13851163 -21.05029297 5.91992188 C-17.71614528 4.70039358 -14.60452609 3.34442984 -11.5 1.625 C-7.46998327 -0.24607919 -4.32212308 -0.92456737 0 0 Z " fill="#F9F9FA" transform="translate(516,286)"/>
<path d="M0 0 C19.10680315 -0.10949354 38.21341454 -0.12176198 57.32047186 -0.11368442 C62.92500672 -0.11136334 68.52953854 -0.11112343 74.13407373 -0.11219692 C74.94329082 -0.11235016 75.75250791 -0.11250339 76.58624673 -0.11266126 C78.23194636 -0.1129811 79.877646 -0.11330532 81.52334563 -0.11363386 C96.8065439 -0.1164577 112.08973609 -0.11324988 127.37293337 -0.10783349 C140.40137099 -0.10335884 153.4297997 -0.10415289 166.45823717 -0.10875225 C181.71800422 -0.11413708 196.977766 -0.11619306 212.23753387 -0.11313999 C213.87254178 -0.11282155 215.5075497 -0.11250717 217.14255762 -0.11219692 C217.94631111 -0.11204265 218.7500646 -0.11188837 219.57817426 -0.11172942 C225.1621456 -0.11087662 230.74611352 -0.1122998 236.33008432 -0.11467648 C243.15398725 -0.11751816 249.97787871 -0.11664581 256.80178037 -0.11139573 C260.26318471 -0.10881782 263.7245549 -0.10821428 267.18596125 -0.11104488 C280.96997194 -0.12126307 294.74667868 -0.01823691 308.52550147 0.3658904 C309.9039187 0.4040967 311.28239404 0.4402734 312.66092356 0.47418712 C329.50305805 0.90069498 344.10155449 4.03496383 359.40232897 11.02161884 C360.44904772 11.49599384 361.49576647 11.97036884 362.57420397 12.45911884 C373.5985071 17.71422707 384.48728722 24.61938923 393.40232897 33.02161884 C393.40232897 33.68161884 393.40232897 34.34161884 393.40232897 35.02161884 C393.94373522 35.22142353 394.48514147 35.42122822 395.04295397 35.62708759 C398.3928322 37.60706529 400.67003298 40.39515919 403.15232897 43.33411884 C403.68310045 43.96148945 404.21387194 44.58886005 404.76072741 45.23524189 C423.8976629 68.32083858 432.57207317 95.87715441 432.53604174 125.49360371 C432.53791226 126.95641092 432.54021393 128.41921764 432.54290706 129.88202357 C432.54900158 133.8841559 432.54889424 137.88626727 432.54771268 141.88840318 C432.54750808 146.21164567 432.55303309 150.53488154 432.55777025 154.85812092 C432.56606443 163.32156507 432.56882453 171.78500225 432.56938263 180.24845013 C432.56985837 187.13027631 432.57191599 194.01210021 432.57508326 200.89392567 C432.58388639 220.41972246 432.58850315 239.94551376 432.58775278 259.47131255 C432.58769285 261.04913165 432.58769285 261.04913165 432.5876317 262.65882587 C432.58757038 264.23857892 432.58757038 264.23857892 432.58750782 265.85024616 C432.58710143 282.91576423 432.59667021 299.98126023 432.61077007 317.04677191 C432.62514477 334.58378363 432.63203965 352.12078459 432.63117629 369.65780234 C432.63084471 379.49776533 432.633575 389.33770518 432.64435434 399.17766285 C432.65347373 407.55578404 432.65562277 415.93387159 432.64884492 424.3119956 C432.64558701 428.58295418 432.64549662 432.85384829 432.65419817 437.12480068 C432.66209639 441.04188967 432.66059808 444.95886342 432.65191404 448.87594971 C432.65038633 450.28572822 432.65216739 451.69551546 432.65777411 453.10528365 C432.79091544 488.98664411 418.46107258 518.07197282 393.98436022 543.53724384 C363.12216735 573.07145939 324.99029723 577.50986661 284.26223409 577.41379285 C279.94655782 577.4069279 275.63091615 577.41751993 271.31524706 577.42573261 C262.88803609 577.43899338 254.4609058 577.43622674 246.03369182 577.42749469 C239.17839507 577.42068861 232.32312076 577.41981399 225.4678216 577.42306614 C224.48798853 577.42352584 223.50815546 577.42398554 222.49863048 577.42445917 C220.50743805 577.42541845 218.51624563 577.42639109 216.52505321 577.42737694 C197.90360764 577.43590828 179.28220655 577.42613201 160.66076828 577.40997584 C144.71937499 577.39657262 128.77804725 577.39890519 112.83665514 577.41273212 C94.27520437 577.42882431 75.71379247 577.43508673 57.1523357 577.42589533 C55.16923067 577.42493979 53.18612562 577.42399668 51.20302057 577.42306614 C50.2275706 577.42260331 49.25212063 577.42214049 48.24711157 577.42166363 C41.40794592 577.4190848 34.56880514 577.4234207 27.72964334 577.4305048 C19.38377937 577.43896048 11.03799994 577.43655473 2.69214552 577.42066257 C-1.55737871 577.41283451 -5.80676252 577.40959367 -10.05628538 577.41961002 C-53.47545464 577.51326966 -88.10637474 569.32445991 -120.21485853 538.50990009 C-145.33491351 512.30639226 -154.79088513 479.2788091 -154.72465467 443.69410419 C-154.72621467 442.39293549 -154.72777466 441.09176679 -154.72938192 439.75116873 C-154.73352826 436.16823407 -154.73150583 432.58532629 -154.7283957 429.00239158 C-154.72612221 425.12609319 -154.72963113 421.24979926 -154.73237562 417.37350178 C-154.7368135 409.78662197 -154.73586507 402.19975208 -154.73296298 394.61287189 C-154.7306985 388.43487546 -154.73040096 382.2568818 -154.7314868 376.07888508 C-154.73164003 375.19728003 -154.73179326 374.31567498 -154.73195114 373.40735462 C-154.7322709 371.61580924 -154.73259511 369.82426386 -154.73292373 368.03271848 C-154.73577341 351.24187764 -154.7325009 334.45104227 -154.72712336 317.66020232 C-154.72266824 303.30687617 -154.72342156 288.95355812 -154.72804213 274.60023212 C-154.73341848 257.89155777 -154.73548573 241.18288822 -154.73242986 224.47421312 C-154.73211136 222.68461037 -154.73179699 220.89500761 -154.7314868 219.10540485 C-154.73133252 218.22516955 -154.73117825 217.34493425 -154.7310193 216.43802515 C-154.73016236 210.28801682 -154.7315994 204.13801158 -154.73396635 197.98800373 C-154.73679924 190.46233459 -154.73595424 182.93667586 -154.73068561 175.41100788 C-154.72809303 171.58387717 -154.72696586 167.75676365 -154.73033476 163.92963314 C-154.7418032 149.62644814 -154.66609525 135.33451316 -154.16380262 121.03834248 C-154.12663795 119.94691299 -154.08947327 118.8554835 -154.05118239 117.7309804 C-152.88273339 88.37953102 -140.89215765 63.4978646 -122.22267103 41.33411884 C-121.69834486 40.7087624 -121.17401869 40.08340595 -120.63380384 39.43909931 C-119.33366597 37.92651229 -117.97059172 36.46846603 -116.59767103 35.02161884 C-115.93767103 35.02161884 -115.27767103 35.02161884 -114.59767103 35.02161884 C-114.59767103 34.36161884 -114.59767103 33.70161884 -114.59767103 33.02161884 C-103.26066088 22.80258812 -90.3311999 14.87159866 -76.41017103 8.70911884 C-75.38983778 8.23889301 -75.38983778 8.23889301 -74.34889174 7.75916767 C-59.81715917 1.64062951 -43.67783792 0.40385073 -28.10035658 0.27991962 C-26.26912957 0.25206313 -24.43791835 0.2231536 -22.60672235 0.1933279 C-15.07141876 0.08317234 -7.53591051 0.0452842 0 0 Z M-97.59767103 50.02161884 C-98.29376478 50.63392353 -98.98985853 51.24622822 -99.70704603 51.87708759 C-117.19915092 68.28468198 -129.42023823 93.30299147 -130.78292465 117.28142333 C-130.85411503 120.97379685 -130.8642981 124.66142913 -130.85163832 128.35447407 C-130.85394701 129.77776041 -130.85712626 131.20104556 -130.86109281 132.62432826 C-130.86939355 136.5079533 -130.86533714 140.39147926 -130.85912037 144.27510452 C-130.85457736 148.47425137 -130.86158884 152.6733817 -130.86708021 156.87252522 C-130.87595664 165.0883869 -130.87405988 173.30421197 -130.86825493 181.52007507 C-130.86373093 188.20067312 -130.86312873 194.88126094 -130.86530256 201.56186008 C-130.86560903 202.51411593 -130.86591549 203.46637177 -130.86623125 204.44748385 C-130.86687073 206.38223747 -130.86751915 208.31699109 -130.86817643 210.2517447 C-130.87387476 228.37937505 -130.86732996 246.50698514 -130.8565757 264.63461216 C-130.84764352 280.17150214 -130.84919045 295.70836222 -130.85841322 311.24525166 C-130.86912961 329.30666363 -130.87332245 347.36805786 -130.86718869 365.42947257 C-130.86655163 367.35756373 -130.86592288 369.2856549 -130.86530256 371.21374607 C-130.86499401 372.16228999 -130.86468546 373.11083391 -130.86436756 374.08812159 C-130.86264451 380.75566961 -130.86554736 387.42320633 -130.87026167 394.0907526 C-130.87588585 402.22362408 -130.87432194 410.35645698 -130.86370018 418.48932408 C-130.85846367 422.63472807 -130.85635203 426.78006787 -130.86299849 430.92547131 C-130.86900233 434.72775966 -130.86561049 438.52992492 -130.85504338 442.33220227 C-130.85178669 444.34317513 -130.85824053 446.35415669 -130.86515784 448.36512029 C-130.81840798 459.30858355 -129.57179646 469.96043208 -126.41017103 480.45911884 C-126.19586439 481.17229267 -125.98155775 481.8854665 -125.76075697 482.62025166 C-116.98931611 510.49780131 -96.99169795 530.72292431 -71.59767103 544.02161884 C-56.33763276 551.83074641 -39.63631058 553.33106034 -22.72337294 553.28231525 C-21.2777371 553.28534397 -19.83210286 553.28923702 -18.38647139 553.29390782 C-14.45473396 553.30410424 -10.52308857 553.30202756 -6.59134388 553.29772723 C-2.33485248 553.2952446 1.92161763 553.30429322 6.17810106 553.31176472 C14.5021772 553.32447225 22.82622102 553.32631027 31.15030523 553.32396445 C37.9227819 553.32217635 44.69524882 553.32394146 51.46772432 553.3281889 C52.91744504 553.32908168 52.91744504 553.32908168 54.39645305 553.3299925 C56.36034394 553.33120435 58.32423484 553.33241848 60.28812574 553.33363488 C78.68017809 553.34449566 97.07221208 553.34235512 115.46426545 553.33625003 C132.25315629 553.33108476 149.04198903 553.34232865 165.83086838 553.36134825 C183.10704323 553.38076842 200.38319067 553.38897517 217.6593765 553.385225 C227.34356131 553.38331895 237.02769673 553.38574183 246.71187258 553.39993954 C254.95830221 553.41190787 263.20465206 553.4131977 271.4510829 553.40114937 C275.65006226 553.39529809 279.84889609 553.39405584 284.04786539 553.40615177 C306.7724244 553.46696333 328.28615659 553.34564301 349.40232897 544.02161884 C350.46967272 543.55755634 351.53701647 543.09349384 352.63670397 542.61536884 C360.31144864 539.03647237 366.82176351 534.31611088 373.40232897 529.02161884 C374.11002428 528.48021259 374.81771959 527.93880634 375.54686022 527.38099384 C395.15825911 511.56406113 405.70953352 486.81642073 408.80506182 462.41265774 C410.11232695 450.12278155 409.80876836 437.69869587 409.76518488 425.35370481 C409.75413616 421.26995757 409.76072335 417.18622993 409.76496935 413.10247517 C409.77056096 405.13427561 409.76036953 397.16617351 409.74468139 389.19799053 C409.72702706 379.9020225 409.72571975 370.6060726 409.7250658 361.31009043 C409.72338333 344.72066692 409.70763377 328.13128742 409.68357897 311.54188251 C409.66029264 295.47058973 409.64614871 279.39932484 409.64256334 263.32801533 C409.64234058 262.33668684 409.64211781 261.34535836 409.64188829 260.32398962 C409.64144567 258.32669979 409.64100364 256.32940996 409.64056222 254.33212012 C409.64034266 253.346707 409.64012309 252.36129387 409.63989687 251.34601974 C409.63968088 250.36297579 409.6394649 249.37993183 409.63924237 248.36709866 C409.63553732 233.00643366 409.62418119 217.64577311 409.61176647 202.28511302 C409.60734263 196.73261543 409.60389971 191.18011826 409.60114434 185.62761962 C409.59670198 176.82534025 409.58889174 168.02307736 409.57436994 159.22080838 C409.56779081 155.20306924 409.56270153 151.18534449 409.5619092 147.16759968 C409.5611163 143.48360174 409.55565235 139.79964013 409.5465897 136.11565352 C409.54293371 134.1660581 409.54405381 132.21645548 409.54539657 130.26685709 C409.51127929 119.77392377 409.24524124 109.41002797 406.33982897 99.27161884 C406.12503893 98.51356953 405.91024889 97.75552021 405.68895006 96.9744997 C403.24019908 88.81623888 399.58072359 81.4179763 395.40232897 74.02161884 C394.84674303 73.02517353 394.29115709 72.02872822 393.71873522 71.00208759 C378.88837735 46.14256685 353.96812414 31.59424963 326.51951647 24.63490009 C317.70071199 22.89987214 308.96284387 22.87259558 300.00868273 22.87444782 C298.55427607 22.87114329 297.09987033 22.86741649 295.64546573 22.86330634 C291.66632299 22.85334532 287.68719533 22.84957913 283.70804191 22.84691703 C279.40922158 22.84299641 275.11041299 22.83341944 270.81160021 22.82470417 C260.43919888 22.80499022 250.06679666 22.79488044 239.6943813 22.78597638 C234.80153199 22.78158555 229.90868375 22.77622085 225.01583529 22.77098751 C208.73721653 22.75398104 192.45859844 22.73948846 176.17997217 22.73223877 C171.96063406 22.7303291 167.74129596 22.72840873 163.52195787 22.72645283 C162.47335366 22.72596909 161.42474944 22.72548535 160.34436934 22.72498695 C143.37017845 22.71669242 126.39605816 22.69136264 109.42189808 22.65887215 C91.96847848 22.62573844 74.51509468 22.60778435 57.06164348 22.60459453 C47.27287419 22.60243538 37.48420789 22.59377409 27.69546938 22.56813335 C19.35665542 22.54634002 11.01796948 22.53841818 2.67913027 22.54810014 C-1.56834513 22.55261983 -5.81555685 22.55089597 -10.06299543 22.53133869 C-43.78987562 22.38479562 -71.3024256 26.74453837 -97.59767103 50.02161884 Z " fill="#49BBF1" transform="translate(372.5976710319519,214.9783811569214)"/>
<path d="M0 0 C0 63.69 0 127.38 0 193 C-4.69295505 191.43568165 -9.0044992 189.68953332 -13.4375 187.5625 C-14.17137939 187.21396973 -14.90525879 186.86543945 -15.66137695 186.50634766 C-19.83636344 184.52081535 -24.00354627 182.51899244 -28.171875 180.51953125 C-46.36188026 171.79625451 -64.63883383 163.26515969 -82.94140625 154.78125 C-85.21094366 153.72917995 -87.48047492 152.67709664 -89.75 151.625 C-91.44056519 150.84153198 -91.44056519 150.84153198 -93.1652832 150.04223633 C-103.31649157 145.33128444 -113.43842469 140.55910397 -123.5585022 135.78173828 C-133.5461993 131.06843985 -143.55817023 126.41794104 -153.64404297 121.91723633 C-154.85471436 121.37425903 -154.85471436 121.37425903 -156.08984375 120.8203125 C-156.77941162 120.51367676 -157.46897949 120.20704102 -158.17944336 119.89111328 C-160 119 -160 119 -163 117 C-163.33 123.27 -163.66 129.54 -164 136 C-162.02 136.66 -160.04 137.32 -158 138 C-155.48735759 139.12190714 -153.00324755 140.26740705 -150.5234375 141.45703125 C-149.80924652 141.79607986 -149.09505554 142.13512848 -148.35922241 142.48445129 C-146.82712252 143.21214656 -145.29573987 143.94135353 -143.76501465 144.67193604 C-139.69304523 146.61516328 -135.6156788 148.54701433 -131.5390625 150.48046875 C-130.72115234 150.86875854 -129.90324219 151.25704834 -129.06054688 151.65710449 C-121.97488362 155.01867992 -114.86793378 158.33224071 -107.75 161.625 C-97.81988029 166.22169141 -87.90542148 170.85042281 -78 175.5 C-56.05888907 185.79570797 -34.08739034 196.0209636 -12 206 C-12 206.66 -12 207.32 -12 208 C-12.62753174 208.31114746 -13.25506348 208.62229492 -13.90161133 208.94287109 C-26.01440595 214.95568926 -38.08012101 221.03554037 -50.02734375 227.37109375 C-55.83349011 230.44883684 -61.66720751 233.47314917 -67.5 236.5 C-74.63784727 240.20533772 -81.76662778 243.92595937 -88.875 247.6875 C-97.88001785 252.44615166 -106.94025958 257.09672044 -116 261.75 C-117.13535187 262.33314468 -117.13535187 262.33314468 -118.29364014 262.92807007 C-119.05058167 263.31685333 -119.80752319 263.7056366 -120.58740234 264.10620117 C-129.89932932 268.88931198 -139.20607958 273.68197369 -148.5 278.5 C-149.58394043 279.06187012 -150.66788086 279.62374023 -151.78466797 280.20263672 C-159.38768481 284.14966022 -166.97297507 288.12976044 -174.53320312 292.15820312 C-179.89243505 295 -179.89243505 295 -181 295 C-181 221.74 -181 148.48 -181 73 C-156.91824585 62.67924822 -156.91824585 62.67924822 -148.3359375 59.24609375 C-146.88327988 58.66106834 -146.88327988 58.66106834 -145.40127563 58.06422424 C-142.39339807 56.85311106 -139.3843302 55.64499864 -136.375 54.4375 C-124.30415333 49.58980575 -112.2489416 44.71845565 -100.27026367 39.64660645 C-95.76709526 37.74045087 -91.25399104 35.87104182 -86.70605469 34.07373047 C-82.91371137 32.56897353 -79.13301598 31.03578966 -75.3515625 29.50390625 C-74.17385284 29.02683731 -74.17385284 29.02683731 -72.97235107 28.54013062 C-71.34707999 27.88160677 -69.72185697 27.2229643 -68.09667969 26.56420898 C-65.63760722 25.56760939 -63.17818388 24.57187918 -60.71875 23.57617188 C-50.18943506 19.31071296 -39.68138867 15.002469 -29.23330688 10.54100037 C-26.5134992 9.38034433 -23.79178865 8.22419113 -21.06982422 7.06860352 C-19.67458761 6.47466521 -18.28040028 5.87825672 -16.88720703 5.27954102 C-14.84424767 4.40232606 -12.79759106 3.534307 -10.75 2.66796875 C-9.54859375 2.15516357 -8.3471875 1.6423584 -7.109375 1.11401367 C-4 0 -4 0 0 0 Z " fill="#132338" transform="translate(702,389)"/>
<path d="M0 0 C4.35778937 0.87155787 8.02316072 2.12513565 12.0625 3.8515625 C12.75363388 4.14221085 13.44476776 4.43285919 14.15684509 4.73231506 C15.65411006 5.36229524 17.1505364 5.99427151 18.64620972 6.62802124 C22.6985711 8.34445208 26.75762198 10.04491906 30.81640625 11.74609375 C32.0772982 12.27506004 32.0772982 12.27506004 33.36366272 12.81471252 C42.19219861 16.51187614 51.06171436 20.1056048 59.9375 23.6875 C71.22704245 28.24718228 82.50321095 32.83576482 93.75 37.5 C94.9352124 37.99145508 96.1204248 38.48291016 97.34155273 38.98925781 C100.56135985 40.32539168 103.78076195 41.66249572 107 43 C110.16571878 44.31480383 113.33234923 45.62735846 116.5 46.9375 C118.24796875 47.66259766 118.24796875 47.66259766 120.03125 48.40234375 C123.27557582 49.72743638 126.54793831 50.97104444 129.82421875 52.21484375 C138.39714883 55.49975797 146.84869189 59.07039077 155.3125 62.625 C157.71029085 63.63148609 160.10832577 64.63737043 162.50712585 65.64144897 C163.98478728 66.2599912 165.46189309 66.87986328 166.93830872 67.50137329 C167.61649155 67.78531952 168.29467438 68.06926575 168.9934082 68.36181641 C169.57596878 68.60654694 170.15852936 68.85127747 170.75874329 69.10342407 C174.14996388 70.46002313 177.58006 71.7175225 181 73 C181 146.26 181 219.52 181 295 C174.25494043 292.75164681 174.25494043 292.75164681 170.93676758 290.96435547 C170.19851242 290.57055695 169.46025726 290.17675842 168.69963074 289.77102661 C167.91832291 289.3490097 167.13701508 288.9269928 166.33203125 288.4921875 C164.63024826 287.58462085 162.92792102 286.67807409 161.22509766 285.77246094 C160.35757874 285.31045288 159.49005981 284.84844482 158.59625244 284.37243652 C154.54672067 282.23176437 150.4685258 280.14860872 146.38671875 278.0703125 C145.20102547 277.46561127 145.20102547 277.46561127 143.99137878 276.84869385 C142.37995257 276.02692369 140.76841532 275.20537121 139.1567688 274.3840332 C126.85790258 268.1130752 114.60959078 261.79266961 102.53466797 255.09863281 C95.04527138 250.96807257 87.41194005 247.15309716 79.74853516 243.35742188 C71.25669184 239.14804949 62.8692399 234.76260175 54.49707031 230.32128906 C40.74901158 223.0467003 26.94844176 215.88312075 13 209 C13 208.34 13 207.68 13 207 C30.66485736 198.08285716 48.46802351 189.49002415 66.3671875 181.0546875 C68.63697611 179.9848608 70.9067572 178.91501817 73.17651367 177.84512329 C74.72771425 177.11399961 76.27898399 176.38302264 77.83032227 175.65219116 C88.62813788 170.56380379 99.39095954 165.40896008 110.125 160.1875 C122.7293165 154.05748571 135.40504208 148.10295767 148.16210938 142.29589844 C150.14601081 141.38996685 152.12619991 140.47588116 154.10351562 139.55566406 C155.09544922 139.09643555 156.08738281 138.63720703 157.109375 138.1640625 C158.00108398 137.74850098 158.89279297 137.33293945 159.81152344 136.90478516 C162 136 162 136 164 136 C164 129.73 164 123.46 164 117 C162.28039062 117.79921875 160.56078125 118.5984375 158.7890625 119.421875 C146.73909837 125.02061386 134.68724136 130.61524907 122.625 136.1875 C121.55926758 136.67992187 120.49353516 137.17234375 119.39550781 137.6796875 C114.28773101 140.03592103 109.17445339 142.37855196 104.046875 144.69140625 C103.08958496 145.12364502 102.13229492 145.55588379 101.14599609 146.0012207 C99.4002884 146.78794272 97.65338025 147.57201158 95.90478516 148.35229492 C90.02482675 151.00091954 84.25367458 153.84848201 78.49339294 156.74571228 C70.01130935 161.00944428 61.47392477 165.15893733 52.9375 169.3125 C52.08848114 169.72597687 51.23946228 170.13945374 50.36471558 170.56546021 C39.23036657 175.98761907 28.08634267 181.38779538 16.90014648 186.70239258 C16.08876221 187.08806396 15.27737793 187.47373535 14.44140625 187.87109375 C13.6952002 188.2254248 12.94899414 188.57975586 12.18017578 188.94482422 C9.94533081 190.02645915 7.73689882 191.15290161 5.52734375 192.28515625 C2 194 2 194 0 194 C0 129.98 0 65.96 0 0 Z " fill="#132439" transform="translate(322,389)"/>
<path d="M0 0 C26.25827648 10.50331059 26.25827648 10.50331059 36.1809082 14.72070312 C46.64822287 19.16251127 57.21202682 23.37516851 67.75488281 27.63354492 C75.30358623 30.68365264 82.8413499 33.75380359 90.35083008 36.8996582 C92.86639265 37.94450573 95.39069312 38.96241929 97.921875 39.96875 C104.05983951 42.41026333 110.15134143 44.96228919 116.25 47.5 C127.01234217 51.96969432 137.80410074 56.36152012 148.625 60.6875 C149.2792395 60.94934082 149.933479 61.21118164 150.60754395 61.48095703 C157.75133733 64.38205321 157.75133733 64.38205321 165 67 C165 67.66 165 68.32 165 69 C164.15824219 69.30550781 163.31648438 69.61101562 162.44921875 69.92578125 C149.86264981 74.54792828 137.47695934 79.65469899 125.07470703 84.74658203 C122.24387872 85.90058176 119.40525177 87.03202494 116.5625 88.15625 C112.93206218 89.6029989 109.39636991 91.17668263 105.875 92.875 C101.24757591 95.03855438 96.61581733 96.93487002 91.8125 98.6875 C82.15063556 102.25851416 72.64305228 106.19007128 63.125 110.125 C59.73212198 111.52429001 56.33872439 112.92231777 52.9453125 114.3203125 C52.13825363 114.65303162 51.33119476 114.98575073 50.49967957 115.32855225 C45.86287171 117.23863574 41.21902483 119.12814685 36.55859375 120.97998047 C31.05230213 123.17514138 25.56113724 125.40811431 20.06811523 127.63623047 C18.6461673 128.21270025 17.22396596 128.78854537 15.80151367 129.36376953 C14.39557838 129.93234987 12.98994415 130.50167524 11.58462524 131.07177734 C10.22494476 131.62328971 8.86458279 132.17312529 7.50350952 132.72119141 C3.91016777 134.17844268 0.41791292 135.75442941 -3.05859375 137.46875 C-8.13344733 139.69754672 -11.58505509 138.89159268 -16.74560547 136.98632812 C-20.16803529 135.62900252 -23.55248976 134.19809144 -26.9375 132.75 C-28.88414161 131.92869774 -30.83209029 131.11054899 -32.78010559 130.29251099 C-34.13464657 129.72349945 -35.48879802 129.15355981 -36.84257507 128.58273315 C-43.44058765 125.80313426 -50.07156797 123.10766992 -56.70932007 120.4246521 C-68.53485665 115.64434116 -80.33607902 110.80732912 -92.125 105.9375 C-104.38664034 100.87279113 -116.67934902 95.89250499 -129.00830078 90.99389648 C-136.36974732 88.06691205 -143.69612442 85.06767593 -151 82 C-154.06478579 80.71668518 -157.12990406 79.43417055 -160.1953125 78.15234375 C-162.24785127 77.29405708 -164.29992808 76.43466492 -166.3515625 75.57421875 C-171.86473433 73.27115854 -177.38903253 71.05377518 -183 69 C-183 68.34 -183 67.68 -183 67 C-177.86388954 64.89223093 -172.72772108 62.78460329 -167.5914917 60.67712402 C-165.77935061 59.93357086 -163.96721683 59.18999987 -162.15509033 58.44641113 C-152.23109291 54.3743089 -142.30604165 50.3048991 -132.375 46.25 C-124.07271778 42.85893844 -115.78540802 39.43202926 -107.5 36 C-98.6710062 32.34359894 -89.8410202 28.68974474 -81 25.0625 C-80.17177734 24.72154297 -79.34355469 24.38058594 -78.49023438 24.02929688 C-74.01657491 22.19736392 -69.52356128 20.43955662 -65 18.734375 C-59.68616763 16.70153787 -54.46246347 14.50680524 -49.25 12.23046875 C-48.49565674 11.90168228 -47.74131348 11.57289581 -46.96411133 11.23414612 C-43.84580246 9.87306642 -40.72865721 8.50958112 -37.61669922 7.1340332 C-35.31046313 6.11629668 -32.99949126 5.11004874 -30.6875 4.10546875 C-29.98850586 3.79304733 -29.28951172 3.48062592 -28.56933594 3.15873718 C-24.63578471 1.46094316 -22.42079135 1 -18 1 C-18 39.28 -18 77.56 -18 117 C-10.29006948 119.56997684 -7.70993052 119.56997684 0 117 C0 78.39 0 39.78 0 0 Z " fill="#1A3450" transform="translate(521,308)"/>
<path d="M0 0 C0.33 0 0.66 0 1 0 C1.13028482 28.57477955 1.25787563 57.14957016 1.38218227 85.72437636 C1.39718537 89.1726963 1.41220926 92.62101615 1.42724609 96.06933594 C1.43023671 96.75523872 1.43322732 97.4411415 1.43630856 98.14782922 C1.48059766 108.29517301 1.52627554 118.44250972 1.57275391 128.58984375 C1.73486304 164.07360433 1.87578738 199.55738102 1.98735046 235.04133797 C2.00011782 239.03687319 2.01347573 243.03240606 2.02697754 247.02793884 C2.07512858 261.38229883 2.11557647 275.73664258 2.13740873 290.09107101 C2.14662384 296.1416076 2.15882622 302.19209427 2.17958069 308.2426033 C2.19853709 313.83215809 2.20779232 319.42164504 2.20950699 325.01123095 C2.21172229 327.04057504 2.21731145 329.06991894 2.2266655 331.09924269 C2.27290419 341.60810942 2.11157925 351.66414728 0 362 C-0.20940594 363.05267091 -0.20940594 363.05267091 -0.4230423 364.12660789 C-7.30844187 396.07854535 -28.10684949 422.90715292 -55.05126953 440.68457031 C-79.93695525 456.63732855 -107.12650982 460.49721419 -136.23681641 460.35644531 C-138.38474613 460.35723863 -140.53267569 460.35934333 -142.68060303 460.36264038 C-148.45377785 460.36772283 -154.22677079 460.35433974 -159.99991655 460.33711338 C-166.08688398 460.32192255 -172.17385054 460.32324764 -178.26083374 460.32244873 C-188.48365318 460.31876965 -198.70640495 460.30387681 -208.92919922 460.28125 C-221.97454496 460.25243113 -235.01983621 460.24202699 -248.06521034 460.2375679 C-259.37032071 460.2335586 -270.67541967 460.22106018 -281.98052168 460.20722103 C-285.56995715 460.20316075 -289.15939223 460.20021564 -292.74882889 460.19742584 C-340.64678205 460.15395813 -340.64678205 460.15395813 -362 459 C-362 458.67 -362 458.34 -362 458 C-349.92682233 457.85950887 -337.85356695 457.72686374 -325.78027344 457.59674835 C-322.62938869 457.56254764 -319.47851235 457.52764391 -316.32763672 457.49261475 C-288.1108516 457.18093385 -259.89520607 456.96427543 -231.67701614 456.84905046 C-225.5796396 456.82408564 -219.48227761 456.79673689 -213.38491821 456.76789856 C-212.08908874 456.76180265 -212.08908874 456.76180265 -210.7670809 456.75558358 C-207.2739328 456.73914189 -203.78078483 456.72267962 -200.28763795 456.70598042 C-189.86560249 456.65634322 -179.44362242 456.61606503 -169.02149975 456.59035581 C-162.37286974 456.57321398 -155.72433402 456.54541067 -149.07577693 456.5099259 C-145.19673401 456.48963167 -141.31783094 456.4742142 -137.43873215 456.47194099 C-97.36511274 456.44083145 -64.10616674 448.24325297 -34.4375 419.8125 C-11.02763347 395.87508718 -1.50999064 365.10000622 -1.25 332.32421875 C-1.22191075 330.45365198 -1.19266048 328.58310234 -1.16235352 326.71257019 C-1.07556758 320.80849873 -1.03141143 314.90459977 -1 309 C-0.99482361 308.05669075 -0.98964722 307.1133815 -0.98431396 306.14148712 C-0.91870665 292.99584706 -0.94421432 279.85060963 -0.98168945 266.70492554 C-1.01656456 254.23299513 -1.0267304 241.76103622 -1.03125 229.2890625 C-1.03153765 228.60277228 -1.03182529 227.91648206 -1.03212166 227.20939517 C-1.04911343 182.14015831 -0.76615385 137.07150879 -0.51822662 92.00311995 C-0.49994277 88.67708971 -0.48174122 85.35105904 -0.46356201 82.02502823 C-0.31403208 54.68332323 -0.15982401 27.34164676 0 0 Z " fill="#058EF7" transform="translate(803,332)"/>
<path d="M0 0 C35.8900114 -0.0229811 71.78002149 -0.04055617 107.67003876 -0.05106533 C111.92488262 -0.05231576 116.17972647 -0.05361011 120.43457031 -0.05493164 C121.2814922 -0.05519395 122.12841409 -0.05545626 123.00100029 -0.05572652 C136.64315487 -0.06005608 150.28530516 -0.06792841 163.92745721 -0.0771528 C177.96688554 -0.08656533 192.00631164 -0.09207155 206.04574299 -0.09408849 C214.681157 -0.09544809 223.31655888 -0.0997124 231.95196915 -0.10791647 C237.90548613 -0.11327811 243.858997 -0.11478337 249.81251621 -0.11350138 C253.22704268 -0.11287239 256.64153166 -0.1142864 260.05605698 -0.11920547 C273.7422432 -0.13792496 287.4206596 -0.03827857 301.10168302 0.34322167 C302.48097699 0.38147165 303.86032905 0.4176936 305.23973525 0.45165639 C322.08941361 0.87876686 336.69226587 4.01016706 352 11 C353.04671875 11.474375 354.0934375 11.94875 355.171875 12.4375 C362.48976652 15.92582135 369.61813129 19.9759757 376 25 C376 25.66 376 26.32 376 27 C371.25520343 25.3379284 367.20561405 22.78881321 362.9375 20.1875 C344.20457718 9.04282315 324.57912486 3.86069137 302.83862305 3.84178162 C301.02139803 3.83437465 301.02139803 3.83437465 299.1674614 3.82681805 C295.82206299 3.81415664 292.47670574 3.80584058 289.13129306 3.79939139 C285.51720936 3.79135414 281.90314644 3.77766791 278.28907776 3.76467896 C272.03317926 3.74296318 265.77727861 3.72480089 259.5213623 3.70907402 C250.47643455 3.68633064 241.43152986 3.65819409 232.38662171 3.62875474 C217.71072025 3.58113351 203.03480933 3.53785456 188.35888672 3.49731445 C174.10529852 3.45793166 159.85171869 3.41649879 145.59814453 3.37231445 C144.71908262 3.36959018 143.84002072 3.36686591 142.93432057 3.36405908 C138.52418452 3.35037915 134.1140486 3.33665896 129.70391273 3.32291877 C93.13595925 3.20903994 56.56798786 3.10221165 20 3 C20 2.67 20 2.34 20 2 C13.4 1.67 6.8 1.34 0 1 C0 0.67 0 0.34 0 0 Z " fill="#3DC0E7" transform="translate(380,215)"/>
<path d="M0 0 C0.66 0.33 1.32 0.66 2 1 C3.35904871 8.09631439 3.14256229 15.28197738 3.13371277 22.48287964 C3.13558307 23.85051477 3.13788465 25.21814937 3.14057809 26.58578312 C3.14667588 30.32968751 3.14656487 34.07356949 3.14538372 37.8174777 C3.14517918 41.86134908 3.15070362 45.90521337 3.15544128 49.94908142 C3.16373842 57.86823354 3.16649574 65.78737821 3.16705366 73.70653431 C3.16752948 80.14926822 3.1695875 86.59199968 3.17275429 93.03473282 C3.18156002 111.3236839 3.18617405 129.61262913 3.18542381 147.90158235 C3.18538386 148.88699962 3.1853439 149.8724169 3.18530273 150.88769531 C3.18526185 151.87432443 3.18522097 152.86095355 3.18517885 153.87748052 C3.1847729 169.84684204 3.19432989 185.81617992 3.2084411 201.78553461 C3.22283476 218.20495665 3.22970957 234.6243672 3.22884732 251.0437957 C3.22851628 260.25292021 3.23122238 269.46201996 3.24202538 278.67113876 C3.25117002 286.5166439 3.25327346 294.36211308 3.24651595 302.20762126 C3.24327001 306.20375778 3.24312349 310.19982548 3.2518692 314.19595528 C3.33691058 355.69755124 3.33691058 355.69755124 -2 369 C-2.72984069 371.3483475 -3.44729856 373.69995593 -4.15625 376.0546875 C-5.09988169 378.23028278 -6.23509415 379.44099983 -8 381 C-7.1233784 375.92741434 -5.52307724 371.08063323 -3.90429688 366.20507812 C-0.09338718 353.90259188 0.29829931 340.83107096 0.24050903 328.05432129 C0.24138412 326.6257051 0.24314062 325.19708924 0.24568737 323.76847506 C0.25010555 319.89384242 0.24223466 316.01932284 0.23213124 312.14470458 C0.22341808 307.94726458 0.22642241 303.74982993 0.22793579 299.55238342 C0.22897971 292.29694635 0.22275495 285.04154551 0.21146011 277.78611755 C0.19514081 267.29625368 0.18999056 256.80640715 0.18748413 246.31653196 C0.18311707 229.29353093 0.16983493 212.27054917 0.15087891 195.24755859 C0.13249442 178.72054134 0.11835052 162.19352934 0.10986328 145.66650391 C0.10933783 144.646168 0.10881239 143.62583209 0.10827102 142.57457691 C0.10566076 137.45537066 0.10313339 132.33616436 0.10064721 127.21695805 C0.07994554 84.81129202 0.04474709 42.40564701 0 0 Z " fill="#33B2F7" transform="translate(781,328)"/>
<path d="M0 0 C0.33 0 0.66 0 1 0 C1.00135653 0.66408977 1.00271306 1.32817954 1.00411069 2.01239324 C1.08480518 41.3938969 1.17577796 80.77536486 1.28005161 120.15681346 C1.2925701 124.88807076 1.30500293 129.61932827 1.31738281 134.35058594 C1.31984881 135.29247248 1.3223148 136.23435902 1.32485552 137.20478758 C1.36455175 152.44474056 1.39731296 167.68470093 1.42749982 182.92467538 C1.4586417 198.56864715 1.49726278 214.21258764 1.54279006 229.85652423 C1.57063578 239.50540122 1.59268576 249.1542554 1.60726251 258.80316171 C1.61782525 265.42467951 1.63566947 272.04615307 1.65916704 278.6676375 C1.67249997 282.48473881 1.682692 286.30177827 1.68421364 290.11890411 C1.68595123 294.26613764 1.70305779 298.41317102 1.7215271 302.56036377 C1.71959237 303.75494933 1.71765763 304.9495349 1.71566427 306.18032002 C1.82539342 322.71056283 5.68488418 338.18970396 13 353 C13.55107422 354.21042969 13.55107422 354.21042969 14.11328125 355.4453125 C18.95880592 365.80241334 25.70068296 375.02859281 33.56640625 383.29296875 C35 385 35 385 35 387 C31.66623836 386.78190344 30.81017166 385.79602297 28.484375 383.296875 C27.56012054 382.12455953 26.64938018 380.94150542 25.75 379.75 C25.02538574 378.80326416 25.02538574 378.80326416 24.28613281 377.83740234 C13.02100462 362.89561701 5.54718685 347.09095843 1 329 C0.73382876 328.09282624 0.73382876 328.09282624 0.46228033 327.16732574 C-0.09787408 324.54113338 -0.12408267 322.11861885 -0.12304783 319.43216324 C-0.12503888 318.29209548 -0.12702993 317.15202773 -0.12908131 315.97741246 C-0.12616847 314.72450563 -0.12325563 313.4715988 -0.12025452 312.1807251 C-0.12069052 310.83671255 -0.12156596 309.49270009 -0.12284368 308.14868808 C-0.12508297 304.45220314 -0.12107507 300.7557471 -0.11606562 297.05926585 C-0.11175321 293.07429552 -0.11320811 289.08932686 -0.1139679 285.10435486 C-0.11449263 278.19903425 -0.11135111 271.29372308 -0.10573006 264.38840485 C-0.09760821 254.40443409 -0.09499913 244.4204679 -0.09374207 234.4364942 C-0.09155263 218.23874745 -0.08489546 202.04100574 -0.07543945 185.84326172 C-0.06626255 170.10725937 -0.05918307 154.37125839 -0.05493164 138.63525391 C-0.05466892 137.66553124 -0.05440619 136.69580857 -0.05413551 135.69670036 C-0.05283049 130.83195975 -0.05156677 125.96721913 -0.05032361 121.1024785 C-0.03995436 80.73498217 -0.02233897 40.36749137 0 0 Z " fill="#3CC0E5" transform="translate(220,366)"/>
<path d="M0 0 C4.81290601 0.4812906 9.29365849 1.32771235 13.98330688 2.51594543 C23.66443787 4.59980343 33.27744788 4.44100649 43.14208984 4.43237305 C45.24265616 4.44140566 47.34321722 4.45173652 49.44377136 4.46325684 C55.10599907 4.49067682 60.76812636 4.50009087 66.43041182 4.50611091 C72.362797 4.51553383 78.29510832 4.54174025 84.22744751 4.56611633 C95.44320336 4.60967758 106.65894479 4.63828818 117.87475932 4.66143972 C130.65118357 4.68854715 143.42753313 4.73245515 156.20390391 4.77772844 C182.4692287 4.87042606 208.73457691 4.94217477 235 5 C235 5.33 235 5.66 235 6 C199.36 6.495 199.36 6.495 163 7 C163 7.33 163 7.66 163 8 C145.85673537 8.07043323 128.71351662 8.12315475 111.57013988 8.15543652 C103.60815244 8.17083141 95.64625549 8.19177765 87.68432617 8.22631836 C80.73558255 8.25644897 73.78690454 8.27562842 66.83809739 8.28226548 C63.16702375 8.2861382 59.4961376 8.29508046 55.82512474 8.31719017 C36.36976987 8.4297509 17.71838209 7.93099298 -1 2 C-0.67 1.34 -0.34 0.68 0 0 Z " fill="#27B1ED" transform="translate(304,784)"/>
<path d="M0 0 C0.67527111 0.00042423 1.35054222 0.00084846 2.04627609 0.00128555 C19.32253099 0.01232416 36.59876734 0.0326623 53.875 0.0625 C53.875 0.3925 53.875 0.7225 53.875 1.0625 C51.895 1.3925 49.915 1.7225 47.875 2.0625 C47.875 2.3925 47.875 2.7225 47.875 3.0625 C24.07265278 3.08597549 0.27030733 3.10355054 -23.53204918 3.11431217 C-34.58663701 3.11944425 -45.6412176 3.12642729 -56.69580078 3.13793945 C-66.3433904 3.1479815 -75.99097477 3.15437582 -85.63856947 3.15658849 C-90.73557856 3.15787962 -95.83257265 3.16086208 -100.92957687 3.16823006 C-122.01781524 3.1975767 -143.05981128 3.18028506 -164.125 2.0625 C-164.125 1.7325 -164.125 1.4025 -164.125 1.0625 C-150.29182282 0.88221596 -136.45848649 0.71722033 -122.625 0.5625 C-121.5637516 0.55062275 -120.5025032 0.5387455 -119.40909576 0.52650833 C-79.60539528 0.08580392 -39.80556093 -0.02575397 0 0 Z " fill="#189AF6" transform="translate(605.125,788.9375)"/>
<path d="M0 0 C2.89890402 0.32498924 3.93793292 0.93648389 6.0078125 3.0546875 C22.42192184 24.91997707 32.20644616 49.9513197 32.12025452 77.38343811 C32.12110894 78.39159826 32.12196337 79.39975841 32.12284368 80.43846887 C32.12448291 83.79631864 32.11900273 87.15411777 32.11352539 90.51196289 C32.11324316 92.9270528 32.11340196 95.3421428 32.1139679 97.75723267 C32.11419517 102.94635057 32.11136981 108.13545715 32.10573006 113.32457161 C32.09758139 120.82703536 32.09499639 128.32949304 32.09374207 135.83196073 C32.09155683 148.00605996 32.08491108 160.18015247 32.07543945 172.35424805 C32.06625166 184.17586229 32.05917752 195.9974747 32.05493164 207.8190918 C32.05466892 208.5485412 32.05440619 209.27799061 32.05413551 210.02954454 C32.05283041 213.68920628 32.05156672 217.34886802 32.05032361 221.00852978 C32.03996744 251.33902467 32.02228885 281.6695114 32 312 C31.67 312 31.34 312 31 312 C30.505 197.16 30.505 197.16 30 80 C29.67 80 29.34 80 29 80 C28.97421875 78.99324219 28.9484375 77.98648438 28.921875 76.94921875 C27.947694 49.88718748 19.32536298 23.37813704 1.3984375 2.65234375 C0 1 0 1 0 0 Z " fill="#2CA6F5" transform="translate(773,259)"/>
<path d="M0 0 C95.1457715 -0.34896278 95.1457715 -0.34896278 120 11 C121.57007813 11.7115625 121.57007813 11.7115625 123.171875 12.4375 C130.48976652 15.92582135 137.61813129 19.9759757 144 25 C144 25.66 144 26.32 144 27 C139.25520343 25.3379284 135.20561405 22.78881321 130.9375 20.1875 C113.33923524 9.71785916 94.39993196 4.1171863 73.90625 3.68359375 C72.65805481 3.6524221 72.65805481 3.6524221 71.38464355 3.62062073 C68.75650364 3.55583806 66.12827375 3.49657588 63.5 3.4375 C61.70572029 3.39424678 59.9114493 3.35063046 58.1171875 3.30664062 C53.74488115 3.20023106 49.37248537 3.09876837 45 3 C45 2.67 45 2.34 45 2 C30.15 1.67 15.3 1.34 0 1 C0 0.67 0 0.34 0 0 Z " fill="#2BBBF1" transform="translate(612,215)"/>
<path d="M0 0 C0.33 0 0.66 0 1 0 C1.04690194 14.11768298 1.08194409 28.23535373 1.10362434 42.35309887 C1.1140331 48.90949912 1.12813898 55.4658468 1.15087891 62.0222168 C1.17271122 68.35700811 1.18459047 74.69174904 1.18975449 81.02657509 C1.19343165 83.4357107 1.20061194 85.84484375 1.21146011 88.25395775 C1.31583863 112.40848045 1.31583863 112.40848045 -1 123 C-1.18940155 123.90876389 -1.3788031 124.81752777 -1.57394409 125.75382996 C-2.02358121 127.84159095 -2.50693131 129.92206767 -3 132 C-3.33 132 -3.66 132 -4 132 C-4.98750589 127.65497406 -4.98678976 124.44480397 -4.0625 120.0859375 C-2.39564749 110.59570191 -2.53043783 100.98300093 -2.375 91.375 C-2.33671722 89.44269273 -2.29765997 87.51040064 -2.2578125 85.578125 C-2.08904168 77.05086783 -1.97577474 68.52913153 -2 60 C-1.34 60 -0.68 60 0 60 C0 40.2 0 20.4 0 0 Z " fill="#1490FB" transform="translate(804,571)"/>
<path d="M0 0 C5.71492108 0.01052299 11.42984727 0.01485732 17.14477539 0.01983643 C28.21249616 0.03032921 39.28019576 0.04722267 50.34790039 0.06866455 C50.34790039 0.39866455 50.34790039 0.72866455 50.34790039 1.06866455 C14.70790039 1.56366455 14.70790039 1.56366455 -21.65209961 2.06866455 C-21.65209961 2.39866455 -21.65209961 2.72866455 -21.65209961 3.06866455 C-31.26594379 3.11494196 -40.87974982 3.15051028 -50.49368095 3.17228889 C-54.95749716 3.18273989 -59.42123733 3.19692299 -63.88500977 3.21954346 C-68.19030635 3.24122507 -72.49552966 3.25322325 -76.80087662 3.25841904 C-78.44597655 3.26212324 -80.09107234 3.26935632 -81.7361412 3.28012466 C-84.03487665 3.29457754 -86.33330674 3.29664513 -88.63208008 3.29571533 C-89.94224091 3.30015656 -91.25240173 3.30459778 -92.6022644 3.30917358 C-95.65209961 3.06866455 -95.65209961 3.06866455 -97.65209961 1.06866455 C-65.09659404 0.23947785 -32.56540258 -0.06672745 0 0 Z " fill="#21A5EA" transform="translate(488.652099609375,788.9313354492188)"/>
<path d="M0 0 C2.89890402 0.32498924 3.93793292 0.93648389 6.0078125 3.0546875 C21.01841313 23.05035846 31.54913783 46.75171861 32 72 C31.67 72.33 31.34 72.66 31 73 C30.63239269 75.32817964 30.29758419 77.6618385 30 80 C29.67 80 29.34 80 29 80 C28.97421875 78.99324219 28.9484375 77.98648438 28.921875 76.94921875 C27.947694 49.88718748 19.32536298 23.37813704 1.3984375 2.65234375 C0 1 0 1 0 0 Z " fill="#24ADF3" transform="translate(773,259)"/>
<path d="M0 0 C-2.25205005 2.47509654 -4.50171099 3.91881971 -7.4375 5.5 C-14.1257019 9.44108849 -19.46669903 14.63405785 -25 20 C-25.51916992 20.49338867 -26.03833984 20.98677734 -26.57324219 21.49511719 C-32.88064237 27.48968909 -38.44826421 33.50165145 -43.37890625 40.72265625 C-45 43 -45 43 -46.671875 44.640625 C-48.539525 46.5522197 -48.64995986 48.40970299 -49 51 C-50.485 51.495 -50.485 51.495 -52 52 C-50.70201405 41.7306406 -41.61413168 32.22846571 -35.0625 24.625 C-34.49499023 23.9645166 -33.92748047 23.3040332 -33.34277344 22.62353516 C-31.9431193 21.03869471 -30.47699655 19.51302086 -29 18 C-28.34 18 -27.68 18 -27 18 C-27 17.34 -27 16.68 -27 16 C-24.91363082 14.16014707 -22.82530186 12.44431992 -20.625 10.75 C-19.99102295 10.25854492 -19.3570459 9.76708984 -18.70385742 9.26074219 C-4.59401398 -1.53133799 -4.59401398 -1.53133799 0 0 Z " fill="#50C5EA" transform="translate(285,232)"/>
<path d="M0 0 C0.33 0 0.66 0 1 0 C1.04666583 11.03250002 1.08204113 22.06497595 1.10362434 33.09755516 C1.11399142 38.2222992 1.12801869 43.34697494 1.15087891 48.47167969 C1.172863 53.43191814 1.18462157 58.39209156 1.18975449 63.35237503 C1.19340496 65.22986498 1.20053081 67.10735201 1.21146011 68.98481369 C1.38775342 100.57082357 1.38775342 100.57082357 -4 114 C-4.72984069 116.3483475 -5.44729856 118.69995593 -6.15625 121.0546875 C-7.09988169 123.23028278 -8.23509415 124.44099983 -10 126 C-9.1233784 120.92741434 -7.52307724 116.08063323 -5.90429688 111.20507812 C-1.51562209 97.0374343 -1.63228473 81.8757799 -1.3671875 67.1875 C-1.32592694 65.23737067 -1.28393142 63.28725677 -1.24124146 61.3371582 C-1.13205137 56.26087117 -1.03269382 51.18444003 -0.93554688 46.10791016 C-0.83418903 40.90514653 -0.72330663 35.70258627 -0.61328125 30.5 C-0.39965447 20.33350798 -0.19643884 10.16683766 0 0 Z " fill="#229EF7" transform="translate(783,583)"/>
<path d="M0 0 C0.30292969 1.24394531 0.60585937 2.48789062 0.91796875 3.76953125 C3.20945175 12.95856287 5.64095045 21.54399565 10 30 C10.36609375 30.80050781 10.7321875 31.60101562 11.109375 32.42578125 C15.93768235 42.79341381 22.70044491 52.02834271 30.56640625 60.29296875 C32 62 32 62 32 64 C28.66623836 63.78190344 27.81017166 62.79602297 25.484375 60.296875 C24.56012054 59.12455953 23.64938018 57.94150542 22.75 56.75 C22.26692383 56.11884277 21.78384766 55.48768555 21.28613281 54.83740234 C9.07908994 38.64628485 0.77700692 20.95888951 -3 1 C-1 0 -1 0 0 0 Z " fill="#3ACDF2" transform="translate(223,689)"/>
<path d="M0 0 C59.33215633 -0.21446412 59.33215633 -0.21446412 82 1 C82 1.66 82 2.32 82 3 C69.79 3 57.58 3 45 3 C45 2.67 45 2.34 45 2 C30.15 1.67 15.3 1.34 0 1 C0 0.67 0 0.34 0 0 Z " fill="#1CD7F3" transform="translate(612,215)"/>
<path d="M0 0 C6.07394557 0.60739456 11.90548873 1.80865417 17.8515625 3.18359375 C31.20500227 5.92240799 44.29110957 6.4034859 57.875 6.625 C59.83465089 6.66327823 61.79428673 6.70233526 63.75390625 6.7421875 C68.50247868 6.83709025 73.25112924 6.92150099 78 7 C78 7.33 78 7.66 78 8 C71.3696252 8.07726375 64.73936998 8.12909723 58.10864258 8.16479492 C55.86185367 8.17970617 53.61509294 8.20004231 51.3684082 8.22631836 C33.37962679 8.43114708 16.27609623 7.47399903 -1 2 C-0.67 1.34 -0.34 0.68 0 0 Z " fill="#2ABAF5" transform="translate(304,784)"/>
<path d="M0 0 C0.91808441 0.0028299 1.83616882 0.00565979 2.78207397 0.00857544 C5.67516886 0.01964851 8.56793836 0.04472783 11.4609375 0.0703125 C13.43879757 0.08035898 15.41666256 0.08948189 17.39453125 0.09765625 C22.20845609 0.11954545 27.0221419 0.15398418 31.8359375 0.1953125 C32.3309375 1.1853125 32.3309375 1.1853125 32.8359375 2.1953125 C31.33365601 2.2250415 31.33365601 2.2250415 29.80102539 2.25537109 C25.9967813 2.33287193 22.19285027 2.42133199 18.38891602 2.51269531 C16.75909718 2.55040115 15.12921144 2.58534164 13.49926758 2.6171875 C2.16561074 2.84113132 -8.93066225 3.66418034 -20.1640625 5.1953125 C-20.1640625 4.2053125 -20.1640625 3.2153125 -20.1640625 2.1953125 C-13.35422441 0.59297762 -6.98556933 -0.08316251 0 0 Z " fill="#45BAE2" transform="translate(336.1640625,215.8046875)"/>
<path d="M0 0 C6.02822705 -0.04991844 12.05633034 -0.08596198 18.0847168 -0.10986328 C20.12998555 -0.11984099 22.17524034 -0.13342795 24.22045898 -0.15087891 C35.32807586 -0.24319349 46.0825655 -0.315859 57 2 C57 2.33 57 2.66 57 3 C44.79 3 32.58 3 20 3 C20 2.67 20 2.34 20 2 C13.4 1.67 6.8 1.34 0 1 C0 0.67 0 0.34 0 0 Z " fill="#28D8EF" transform="translate(380,215)"/>
<path d="M0 0 C0.99 0 1.98 0 3 0 C2.86722656 0.845625 2.73445312 1.69125 2.59765625 2.5625 C2.42105469 3.696875 2.24445313 4.83125 2.0625 6 C1.88847656 7.11375 1.71445313 8.2275 1.53515625 9.375 C0.53125605 16.1751415 -0.16260237 22.78933987 -0.31640625 29.65625 C-0.33718735 30.44398804 -0.35796844 31.23172607 -0.37937927 32.04333496 C-0.44410974 34.52881206 -0.50339906 37.01438333 -0.5625 39.5 C-0.60575823 41.19792592 -0.64937468 42.89584275 -0.69335938 44.59375 C-0.79971113 48.72907325 -0.90118749 52.86449001 -1 57 C-1.33 57 -1.66 57 -2 57 C-2.21989936 51.29378498 -2.41613219 45.5873795 -2.59204102 39.87963867 C-2.65481589 37.94485598 -2.72365299 36.0102588 -2.79907227 34.07592773 C-3.2557735 22.24154213 -3.05719518 11.50055751 0 0 Z " fill="#42BEE5" transform="translate(222,309)"/>
<path d="M0 0 C3.61582251 1.31833529 6.52991954 2.93859163 9.6875 5.125 C17.30237685 10.09349794 25.65025038 13.46352739 34 17 C33.01 17.66 32.02 18.32 31 19 C28.3848145 18.17318491 26.09588279 17.27461867 23.625 16.125 C22.91907715 15.80490967 22.2131543 15.48481934 21.48583984 15.1550293 C2.29366998 6.23159737 2.29366998 6.23159737 0 0 Z " fill="#31C0F2" transform="translate(270,766)"/>
<path d="M0 0 C1.89184413 3.19248697 2.41065574 5.30409831 2 9 C1.36550815 11.22941314 0.63323688 13.40234435 -0.14453125 15.5859375 C-0.71804529 17.20434698 -1.25694852 18.83541211 -1.76171875 20.4765625 C-2.00535156 21.26804687 -2.24898437 22.05953125 -2.5 22.875 C-2.7165625 23.59429688 -2.933125 24.31359375 -3.15625 25.0546875 C-4.09988169 27.23028278 -5.23509415 28.44099983 -7 30 C-6.07951267 24.69673777 -4.42018586 19.62946566 -2.81640625 14.50195312 C-1.34810599 9.6582999 -0.50103207 5.03878846 0 0 Z " fill="#218ADE" transform="translate(780,679)"/>
<path d="M0 0 C0 0.33 0 0.66 0 1 C-1.65 1.33 -3.3 1.66 -5 2 C-5 2.33 -5 2.66 -5 3 C-10.61 3.66 -16.22 4.32 -22 5 C-22 4.01 -22 3.02 -22 2 C-14.58569409 0.16282685 -7.62314474 -0.23576736 0 0 Z " fill="#4DC2E7" transform="translate(338,216)"/>
<path d="M0 0 C-2.3932786 2.61371215 -4.98397046 4.40088665 -8 6.25 C-9.299375 7.06210938 -9.299375 7.06210938 -10.625 7.890625 C-13 9 -13 9 -16 8 C-12.26268832 3.61272107 -5.86202224 -1.95400741 0 0 Z " fill="#44C1E8" transform="translate(285,232)"/>
<path d="M0 0 C0.99 0 1.98 0 3 0 C2.54636829 1.58468677 2.08688548 3.16769924 1.625 4.75 C1.36976563 5.63171875 1.11453125 6.5134375 0.8515625 7.421875 C0.0790066 9.76080572 -0.83625676 11.83442562 -2 14 C-2.66 13.67 -3.32 13.34 -4 13 C-2.93204565 8.49933525 -1.85961414 4.2505466 0 0 Z " fill="#56C4E8" transform="translate(227,294)"/>
<path d="M0 0 C0.33 0.66 0.66 1.32 1 2 C-0.19069836 3.63796577 -1.40341142 5.25994094 -2.625 6.875 C-3.29789063 7.77992188 -3.97078125 8.68484375 -4.6640625 9.6171875 C-7.31833064 12.32471855 -9.36102004 13.09286173 -13 14 C-10.2193099 10.39540172 -7.25839264 7.17693282 -4 4 C-3.236875 3.236875 -2.47375 2.47375 -1.6875 1.6875 C-1.130625 1.130625 -0.57375 0.57375 0 0 Z " fill="#1F88E5" transform="translate(758,731)"/>
<path d="M0 0 C2.96175123 0.61277612 4.38058783 1.25372522 7 3 C7 3.66 7 4.32 7 5 C7.61875 5.268125 8.2375 5.53625 8.875 5.8125 C11 7 11 7 13 10 C8.87731395 10 7.79669528 8.32277298 4.8125 5.5625 C3.91144531 4.73878906 3.01039063 3.91507813 2.08203125 3.06640625 C1.39496094 2.38449219 0.70789063 1.70257813 0 1 C0 0.67 0 0.34 0 0 Z " fill="#28BFF2" transform="translate(759,245)"/>
<path d="M0 0 C0.99 0 1.98 0 3 0 C2.34 4.29 1.68 8.58 1 13 C0.01 12.67 -0.98 12.34 -2 12 C-1 3.42857143 -1 3.42857143 0 0 Z " fill="#56C5E8" transform="translate(222,309)"/>
<path d="M0 0 C4.2026393 2.63886654 7.56638098 5.36440339 11 9 C10.01 9.33 9.02 9.66 8 10 C5.95703125 8.671875 5.95703125 8.671875 3.8125 6.75 C3.09707031 6.12609375 2.38164062 5.5021875 1.64453125 4.859375 C0 3 0 3 0 0 Z " fill="#37C8F3" transform="translate(257,755)"/>
<path d="M0 0 C0.33 1.32 0.66 2.64 1 4 C-3.95 5.485 -3.95 5.485 -9 7 C-8.67 5.68 -8.34 4.36 -8 3 C-6.15234375 1.953125 -6.15234375 1.953125 -3.9375 1.25 C-2.83728516 0.88648438 -2.83728516 0.88648438 -1.71484375 0.515625 C-1.14894531 0.34546875 -0.58304687 0.1753125 0 0 Z " fill="#44C2E8" transform="translate(306,220)"/>
<path d="M0 0 C4.84659077 0.59104765 8.60748167 1.97944157 13 4 C12.01 4.66 11.02 5.32 10 6 C7.51953125 5.3203125 7.51953125 5.3203125 4.8125 4.125 C3.91144531 3.73570312 3.01039063 3.34640625 2.08203125 2.9453125 C1.39496094 2.63335938 0.70789063 2.32140625 0 2 C0 1.34 0 0.68 0 0 Z " fill="#27AFEF" transform="translate(291,779)"/>
<path d="M0 0 C0.99 0.33 1.98 0.66 3 1 C3.77403558 5.06368679 4.0984702 8.86425173 4 13 C2.42445965 10.11371599 1.53723627 7.46657616 0.875 4.25 C0.70742188 3.45078125 0.53984375 2.6515625 0.3671875 1.828125 C0.24601563 1.22484375 0.12484375 0.6215625 0 0 Z " fill="#3AA5DC" transform="translate(776,307)"/>
<path d="M0 0 C1.32 0.33 2.64 0.66 4 1 C0.535 3.97 0.535 3.97 -3 7 C-2.25 2.25 -2.25 2.25 0 0 Z " fill="#42CAEB" transform="translate(255,251)"/>
<path d="M0 0 C0.99 0 1.98 0 3 0 C1.125 4.75 1.125 4.75 0 7 C-0.99 6.67 -1.98 6.34 -3 6 C-2.01 4.02 -1.02 2.04 0 0 Z " fill="#4AC6ED" transform="translate(230,287)"/>
<path d="M0 0 C0.33 0.99 0.66 1.98 1 3 C1.66 3 2.32 3 3 3 C2.67 5.97 2.34 8.94 2 12 C-0.35333796 7.29332409 -0.17102038 5.1306114 0 0 Z " fill="#11A2F2" transform="translate(801,314)"/>
<path d="M0 0 C0.99 0.66 1.98 1.32 3 2 C1 4 1 4 -2.625 4.125 C-3.73875 4.08375 -4.8525 4.0425 -6 4 C-4.03617993 2.49440461 -2.21736634 1.10868317 0 0 Z " fill="#42CCEB" transform="translate(291,226)"/>
<path d="" fill="#00FFFF" transform="translate(0,0)"/>
<path d="" fill="#00FFFF" transform="translate(0,0)"/>
</svg>
